<svg width="15.235229" height="18.230713" viewBox="0 0 15.2352 18.2307" fill="none" xmlns="http://www.w3.org/2000/svg" xmlns:xlink="http://www.w3.org/1999/xlink">
	<desc>
			Created with Pixso.
	</desc>
	<defs/>
	<path id="Vector" d="M12.725 9.69495C12.7036 7.39172 14.662 6.27124 14.7516 6.21912C13.6425 4.64478 11.9233 4.42969 11.3193 4.4126C9.87549 4.26465 8.47498 5.25366 7.7395 5.25366C6.98938 5.25366 5.85681 4.42688 4.63611 4.45117C3.06531 4.47473 1.59583 5.36011 0.789917 6.73499C-0.873413 9.53845 0.367065 13.6581 1.96057 15.9241C2.75781 17.0339 3.68921 18.2731 4.90845 18.2294C6.1012 18.1815 6.54675 17.4891 7.98608 17.4891C9.41235 17.4891 9.83069 18.2294 11.0741 18.2015C12.3542 18.1815 13.1602 17.0868 13.9294 15.967C14.8506 14.6949 15.2206 13.4423 15.2352 13.3779C15.2052 13.3679 12.7491 12.4554 12.725 9.69495Z" fill="#FFFFFF" fill-opacity="1.000000" fill-rule="nonzero"/>
	<path id="Vector" d="M10.3761 2.922C11.0177 2.14099 11.4567 1.07837 11.3347 0C10.4062 0.0400391 9.245 0.625244 8.57629 1.38916C7.98474 2.06238 7.4563 3.16565 7.59277 4.20325C8.63574 4.27905 9.70679 3.69092 10.3761 2.922Z" fill="#FFFFFF" fill-opacity="1.000000" fill-rule="nonzero"/>
</svg>
