<svg width="24.000000" height="24.000000" viewBox="0 0 24 24" fill="none" xmlns="http://www.w3.org/2000/svg" xmlns:xlink="http://www.w3.org/1999/xlink">
	<desc>
			Created with Pixso.
	</desc>
	<defs>
		<clipPath id="clip32_105">
			<rect width="24.000000" height="24.000000" fill="white" fill-opacity="0"/>
		</clipPath>
	</defs>
	<rect width="24.000000" height="24.000000" fill="#FFFFFF" fill-opacity="0"/>
	<g clip-path="url(#clip32_105)">
		<path d="M23.9764 7.05615C23.9202 5.78076 23.7141 4.90405 23.4186 4.14453C23.1139 3.33813 22.645 2.61621 22.0308 2.01611C21.4306 1.40649 20.7039 0.932861 19.9069 0.633057C19.1428 0.337646 18.2707 0.131348 16.9955 0.0751953C15.7108 0.0141602 15.3029 0 12.0444 0C8.78601 0 8.37817 0.0141602 7.09821 0.0703125C5.82294 0.126465 4.94629 0.333008 4.18677 0.628174C3.38025 0.932861 2.65826 1.40186 2.05811 2.01611C1.44861 2.61621 0.97522 3.34277 0.675049 4.13989C0.379639 4.90405 0.173401 5.77612 0.117188 7.05127C0.0562134 8.33594 0.0421143 8.7439 0.0421143 12.0024C0.0421143 15.2607 0.0562134 15.6687 0.112427 16.9487C0.16864 18.2239 0.375061 19.1006 0.670471 19.8601C0.97522 20.6665 1.44861 21.3884 2.05811 21.9888C2.65826 22.5981 3.38501 23.0718 4.18201 23.3718C4.94629 23.6672 5.81818 23.8733 7.09363 23.9297C8.37341 23.9861 8.78143 24 12.0399 24C15.2983 24 15.7062 23.9861 16.9861 23.9297C18.2614 23.8733 19.1381 23.6672 19.8975 23.3718C21.5105 22.748 22.7857 21.4729 23.4093 19.8601C23.7045 19.0959 23.9109 18.2239 23.9671 16.9487C24.0234 15.6687 24.0375 15.2607 24.0375 12.0024C24.0375 8.7439 24.0327 8.33594 23.9764 7.05615ZM21.8152 16.8547C21.7635 18.0269 21.5667 18.6599 21.4026 19.0818C20.9993 20.1274 20.1695 20.9573 19.124 21.3606C18.702 21.5247 18.0645 21.7214 16.897 21.7729C15.6311 21.8293 15.2515 21.8433 12.0492 21.8433C8.84698 21.8433 8.46259 21.8293 7.20129 21.7729C6.02917 21.7214 5.39624 21.5247 4.9743 21.3606C4.45398 21.1682 3.98041 20.8635 3.59595 20.4648C3.19745 20.0757 2.8927 19.6069 2.70038 19.0867C2.53632 18.6646 2.33942 18.0269 2.28796 16.8596C2.23157 15.5938 2.21765 15.2139 2.21765 12.0117C2.21765 8.80957 2.23157 8.42505 2.28796 7.16382C2.33942 5.99194 2.53632 5.35889 2.70038 4.93701C2.8927 4.4165 3.19745 3.94312 3.60071 3.55835C3.98975 3.15991 4.45856 2.85522 4.97906 2.66309C5.401 2.49902 6.0387 2.302 7.20605 2.25049C8.47192 2.19434 8.85175 2.18018 12.0538 2.18018C15.2608 2.18018 15.6404 2.19434 16.9017 2.25049C18.0739 2.302 18.7068 2.49902 19.1287 2.66309C19.649 2.85522 20.1226 3.15991 20.507 3.55835C20.9056 3.94751 21.2103 4.4165 21.4026 4.93701C21.5667 5.35889 21.7635 5.99634 21.8152 7.16382C21.8715 8.42969 21.8856 8.80957 21.8856 12.0117C21.8856 15.2139 21.8715 15.5889 21.8152 16.8547Z" fill="#222222" fill-opacity="1.000000" fill-rule="nonzero"/>
		<path d="M12.0446 5.83691C8.64087 5.83691 5.87927 8.59839 5.87927 12.0022C5.87927 15.406 8.64087 18.1675 12.0446 18.1675C15.4484 18.1675 18.2098 15.406 18.2098 12.0022C18.2098 8.59839 15.4484 5.83691 12.0446 5.83691ZM12.0446 16.0015C9.83643 16.0015 8.04529 14.2104 8.04529 12.0022C8.04529 9.79395 9.83643 8.00293 12.0446 8.00293C14.2529 8.00293 16.0438 9.79395 16.0438 12.0022C16.0438 14.2104 14.2529 16.0015 12.0446 16.0015Z" fill="#222222" fill-opacity="1.000000" fill-rule="nonzero"/>
		<path d="M19.8931 5.59351C19.8931 6.38843 19.2486 7.03296 18.4536 7.03296C17.6588 7.03296 17.0143 6.38843 17.0143 5.59351C17.0143 4.79858 17.6588 4.1543 18.4536 4.1543C19.2486 4.1543 19.8931 4.79858 19.8931 5.59351Z" fill="#222222" fill-opacity="1.000000" fill-rule="nonzero"/>
	</g>
</svg>
