<svg width="24.000000" height="24.000000" viewBox="0 0 24 24" fill="none" xmlns="http://www.w3.org/2000/svg" xmlns:xlink="http://www.w3.org/1999/xlink">
	<desc>
			Created with Pixso.
	</desc>
	<defs>
		<clipPath id="clip32_101">
			<rect width="24.000000" height="24.000000" fill="white" fill-opacity="0"/>
		</clipPath>
	</defs>
	<rect width="24.000000" height="24.000000" fill="#FFFFFF" fill-opacity="0"/>
	<g clip-path="url(#clip32_101)">
		<path d="M24 4.55859C23.1075 4.94995 22.1565 5.20947 21.165 5.33545C22.185 4.72656 22.9635 3.76953 23.3295 2.61597C22.3785 3.18311 21.3285 3.5835 20.2095 3.80688C19.3065 2.84546 18.0195 2.25 16.6155 2.25C13.8915 2.25 11.6985 4.46094 11.6985 7.17139C11.6985 7.56152 11.7315 7.93652 11.8125 8.29346C7.72198 8.09399 4.10248 6.13354 1.67102 3.14697C1.24652 3.88354 0.997498 4.72656 0.997498 5.63403C0.997498 7.33789 1.875 8.84839 3.18298 9.7229C2.39252 9.70801 1.617 9.47852 0.960022 9.11694C0.960022 9.13208 0.960022 9.15161 0.960022 9.1709C0.960022 11.562 2.66553 13.5481 4.90198 14.0056C4.50153 14.115 4.065 14.1675 3.612 14.1675C3.297 14.1675 2.979 14.1494 2.68048 14.0835C3.31799 16.032 5.12701 17.4646 7.27802 17.511C5.604 18.8206 3.47852 19.6096 1.17749 19.6096C0.773987 19.6096 0.387024 19.5916 0 19.542C2.1795 20.9475 4.76251 21.75 7.54797 21.75C16.602 21.75 21.552 14.25 21.552 7.74902C21.552 7.53149 21.5445 7.32153 21.534 7.11304C22.5105 6.41992 23.331 5.55444 24 4.55859Z" fill="#222222" fill-opacity="1.000000" fill-rule="nonzero"/>
	</g>
</svg>
